<svg width="183" height="182" viewBox="0 0 183 182" fill="none" xmlns="http://www.w3.org/2000/svg">
<g clip-path="url(#clip0_486_501)">
<path d="M91.4404 0C96.0104 0 99.7104 3.71 99.7104 8.27V32.87H83.1704V8.27C83.1704 3.71 86.8804 0 91.4404 0Z" fill="#FFA829"/>
<path d="M66.6602 132.33H116.28V157.14C116.28 170.83 105.16 181.95 91.4702 181.95C77.7802 181.95 66.6602 170.83 66.6602 157.14V132.33Z" fill="#FFA829"/>
<path d="M182.42 136.48C182.42 139.87 181.04 142.94 178.82 145.16C176.6 147.38 173.53 148.76 170.14 148.76H12.7402C5.96022 148.76 0.470215 143.26 0.470215 136.48C0.470215 133.09 1.84021 130.02 4.06021 127.8C6.28021 125.58 9.35022 124.21 12.7402 124.21H25.2802V82.43C25.2802 45.89 54.9002 16.27 91.4402 16.27C109.71 16.27 126.25 23.68 138.23 35.65C150.2 47.62 157.61 64.16 157.61 82.43V124.21H170.14C176.92 124.21 182.42 129.7 182.42 136.48Z" fill="#FFBE4A"/>
</g>
<defs>
<clipPath id="clip0_486_501">
<rect width="181.95" height="181.95" fill="white" transform="translate(0.470215)"/>
</clipPath>
</defs>
</svg>
