<svg width="182" height="164" viewBox="0 0 182 164" fill="none" xmlns="http://www.w3.org/2000/svg">
<g clip-path="url(#clip0_486_512)">
<path d="M126.016 0.508939L16.0292 54.0581C13.5464 55.2669 12.5136 58.2595 13.7224 60.7423L49.2628 133.74C50.4716 136.223 53.4642 137.256 55.947 136.047L165.934 82.4979C168.417 81.2891 169.449 78.2964 168.241 75.8136L132.7 2.81572C131.491 0.332928 128.499 -0.699855 126.016 0.508939Z" fill="#FFBE4A"/>
<path d="M113.44 47.1001C118.007 47.1001 121.71 43.3975 121.71 38.8301C121.71 34.2627 118.007 30.5601 113.44 30.5601C108.873 30.5601 105.17 34.2627 105.17 38.8301C105.17 43.3975 108.873 47.1001 113.44 47.1001Z" fill="#FF9810"/>
<path d="M118.766 49.782C126.993 45.7767 136.916 49.2089 140.917 57.4267L144.341 64.4576C145.549 66.9392 144.515 69.9337 142.034 71.1419L121.22 81.2756C118.738 82.4838 115.744 81.4504 114.535 78.9688L111.112 71.9379C107.107 63.7111 110.539 53.7874 118.757 49.7864L118.766 49.782Z" fill="#FF9810"/>
<path d="M181.96 69.25V158.5C181.96 161.26 179.72 163.5 176.96 163.5H5C2.24 163.5 0 161.26 0 158.5V69.25C0 66.49 2.24 64.25 5 64.25H26.32C30.47 64.25 34.19 66.82 35.67 70.7L40.28 82.83C41.75 86.71 45.48 89.28 49.63 89.28H132.37C136.52 89.28 140.24 86.72 141.72 82.83L146.34 70.69C147.82 66.81 151.54 64.24 155.69 64.24H176.97C179.73 64.24 181.97 66.48 181.97 69.24L181.96 69.25Z" fill="#FFA829"/>
<path d="M165.94 82.5L55.9499 136.05C53.4699 137.26 50.4799 136.23 49.2699 133.74L15.4299 64.26H26.3299C30.4799 64.26 34.1999 66.82 35.6699 70.71L40.2799 82.84C41.7599 86.72 45.4799 89.29 49.6299 89.29H132.37C136.52 89.29 140.24 86.72 141.71 82.84L146.33 70.7C147.81 66.82 151.53 64.26 155.68 64.26H162.61L168.24 75.82C169.45 78.3 168.42 81.29 165.94 82.5Z" fill="#FF9810"/>
</g>
<defs>
<clipPath id="clip0_486_512">
<rect width="181.96" height="163.5" fill="white"/>
</clipPath>
</defs>
</svg>
