<svg width="182" height="181" viewBox="0 0 182 181" fill="none" xmlns="http://www.w3.org/2000/svg">
<g clip-path="url(#clip0_486_507)">
<path d="M181.95 74.43C181.95 115.54 148.62 148.87 107.52 148.87H99.43C90.24 148.87 82.79 156.32 82.79 165.51V175.93C82.79 179 80.04 181.34 77.01 180.88C33.39 174.16 0 136.47 0 90.98C0 65.85 10.18 43.11 26.65 26.65C43.11 10.18 65.85 0 90.98 0H107.52C148.63 0 181.95 33.33 181.95 74.43Z" fill="#FFBE4A"/>
<path d="M91.06 82.7099C95.6274 82.7099 99.33 79.0073 99.33 74.4399C99.33 69.8725 95.6274 66.1699 91.06 66.1699C86.4926 66.1699 82.79 69.8725 82.79 74.4399C82.79 79.0073 86.4926 82.7099 91.06 82.7099Z" fill="#FF9810"/>
<path d="M124.15 82.7099C128.717 82.7099 132.42 79.0073 132.42 74.4399C132.42 69.8725 128.717 66.1699 124.15 66.1699C119.582 66.1699 115.88 69.8725 115.88 74.4399C115.88 79.0073 119.582 82.7099 124.15 82.7099Z" fill="#FF9810"/>
<path d="M57.98 82.7099C62.5474 82.7099 66.25 79.0073 66.25 74.4399C66.25 69.8725 62.5474 66.1699 57.98 66.1699C53.4126 66.1699 49.71 69.8725 49.71 74.4399C49.71 79.0073 53.4126 82.7099 57.98 82.7099Z" fill="#FF9810"/>
</g>
<defs>
<clipPath id="clip0_486_507">
<rect width="181.95" height="180.94" fill="white"/>
</clipPath>
</defs>
</svg>
