<svg width="183" height="183" viewBox="0 0 183 183" fill="none" xmlns="http://www.w3.org/2000/svg">
<g clip-path="url(#clip0_486_525)">
<path d="M177.19 69.8499C180.54 72.6999 182.47 76.8799 182.47 81.2699V172.07C182.47 177.6 177.99 182.07 172.47 182.07H116.26V124.16C116.26 117.31 113.48 111.12 109 106.63C104.41 102.05 98.0402 99.2499 91.0202 99.3699C77.4102 99.6099 66.6702 111.11 66.6702 124.72V182.07H10.4302C4.91018 182.07 0.430176 177.6 0.430176 172.07V81.2699C0.430176 76.8699 2.36018 72.6999 5.71018 69.8499L84.9702 2.38988C88.7002 -0.790117 94.1902 -0.790117 97.9302 2.38988L177.19 69.8599V69.8499Z" fill="#CCCCCC"/>
</g>
<defs>
<clipPath id="clip0_486_525">
<rect width="182.04" height="182.08" fill="white" transform="translate(0.430176)"/>
</clipPath>
</defs>
</svg>
