<svg width="24" height="24" viewBox="0 0 24 24" fill="none" xmlns="http://www.w3.org/2000/svg">
<g clip-path="url(#clip0_310_144)">
<mask id="mask0_310_144" style="mask-type:alpha" maskUnits="userSpaceOnUse" x="0" y="0" width="24" height="24">
<path d="M24 24L24 0L0 0L0 24L24 24Z" fill="#D9D9D9"/>
</mask>
<g mask="url(#mask0_310_144)">
<path d="M12 9.18462L4.4673 16.7173C4.2686 16.916 4.0346 17.0128 3.7654 17.0077C3.4962 17.0026 3.2622 16.9006 3.0635 16.7019C2.8648 16.5032 2.7654 16.2692 2.7654 16C2.7654 15.7308 2.8648 15.4968 3.0635 15.2981L10.7192 7.62692C10.9 7.44622 11.1026 7.31222 11.3269 7.22502C11.5513 7.13782 11.7756 7.09422 12 7.09422C12.2243 7.09422 12.4487 7.13782 12.6731 7.22502C12.8974 7.31222 13.1 7.44622 13.2807 7.62692L20.9519 15.2981C21.1506 15.4968 21.2474 15.7333 21.2423 16.0077C21.2372 16.2821 21.1352 16.5186 20.9365 16.7173C20.7378 16.916 20.5038 17.0154 20.2346 17.0154C19.9654 17.0154 19.7314 16.916 19.5327 16.7173L12 9.18462Z" fill="#CCCCCC"/>
</g>
</g>
<defs>
<clipPath id="clip0_310_144">
<rect width="24" height="24" fill="white" transform="matrix(-1 0 0 -1 24 24)"/>
</clipPath>
</defs>
</svg>
