<svg width="24" height="24" viewBox="0 0 24 24" fill="none" xmlns="http://www.w3.org/2000/svg">
<mask id="mask0_26_147" style="mask-type:alpha" maskUnits="userSpaceOnUse" x="0" y="0" width="24" height="24">
<rect y="24" width="24" height="24" transform="rotate(-90 0 24)" fill="#D9D9D9"/>
</mask>
<g mask="url(#mask0_26_147)">
<path d="M12 14.8154L19.5327 7.28271C19.7314 7.08399 19.9654 6.9872 20.2346 6.99234C20.5038 6.99747 20.7378 7.09939 20.9365 7.29811C21.1352 7.49681 21.2346 7.73078 21.2346 8.00001C21.2346 8.26924 21.1352 8.50321 20.9365 8.70191L13.2808 16.3731C13.1 16.5538 12.8974 16.6878 12.6731 16.775C12.4487 16.8622 12.2244 16.9058 12 16.9058C11.7757 16.9058 11.5513 16.8622 11.3269 16.775C11.1026 16.6878 10.9 16.5538 10.7193 16.3731L3.0481 8.70191C2.84938 8.50321 2.75258 8.26668 2.7577 7.99231C2.76283 7.71796 2.86476 7.48143 3.06348 7.28271C3.26219 7.08399 3.49616 6.98464 3.76537 6.98464C4.03461 6.98464 4.26858 7.08399 4.4673 7.28271L12 14.8154Z" fill="#CCCCCC"/>
</g>
</svg>
