<svg width="20" height="18" viewBox="0 0 20 18" fill="none" xmlns="http://www.w3.org/2000/svg">
<mask id="path-1-inside-1_401_2924" fill="white">
<path d="M10 14.5C11.25 14.5 12.3125 14.0625 13.1875 13.1875C14.0625 12.3125 14.5 11.25 14.5 10C14.5 8.75 14.0625 7.6875 13.1875 6.8125C12.3125 5.9375 11.25 5.5 10 5.5C8.75 5.5 7.6875 5.9375 6.8125 6.8125C5.9375 7.6875 5.5 8.75 5.5 10C5.5 11.25 5.9375 12.3125 6.8125 13.1875C7.6875 14.0625 8.75 14.5 10 14.5ZM10 12.5C9.3 12.5 8.70833 12.2583 8.225 11.775C7.74167 11.2917 7.5 10.7 7.5 10C7.5 9.3 7.74167 8.70833 8.225 8.225C8.70833 7.74167 9.3 7.5 10 7.5C10.7 7.5 11.2917 7.74167 11.775 8.225C12.2583 8.70833 12.5 9.3 12.5 10C12.5 10.7 12.2583 11.2917 11.775 11.775C11.2917 12.2583 10.7 12.5 10 12.5ZM2 18C1.45 18 0.979167 17.8042 0.5875 17.4125C0.195833 17.0208 0 16.55 0 16V4C0 3.45 0.195833 2.97917 0.5875 2.5875C0.979167 2.19583 1.45 2 2 2H5.15L6.4 0.65C6.58333 0.45 6.80417 0.291667 7.0625 0.175C7.32083 0.0583333 7.59167 0 7.875 0H12.125C12.4083 0 12.6792 0.0583333 12.9375 0.175C13.1958 0.291667 13.4167 0.45 13.6 0.65L14.85 2H18C18.55 2 19.0208 2.19583 19.4125 2.5875C19.8042 2.97917 20 3.45 20 4V16C20 16.55 19.8042 17.0208 19.4125 17.4125C19.0208 17.8042 18.55 18 18 18H2ZM2 16H18V4H13.95L12.125 2H7.875L6.05 4H2V16Z"/>
</mask>
<path d="M5.15 2V5H6.46075L7.35128 4.03822L5.15 2ZM6.4 0.65L8.60128 2.68822L8.60639 2.68271L8.61146 2.67717L6.4 0.65ZM13.6 0.65L11.3885 2.67717L11.3936 2.68271L11.3987 2.68822L13.6 0.65ZM14.85 2L12.6487 4.03822L13.5393 5H14.85V2ZM2 16H-1V19H2V16ZM18 16V19H21V16H18ZM18 4H21V1H18V4ZM13.95 4L11.7339 6.02215L12.6262 7H13.95V4ZM12.125 2L14.3411 -0.0221511L13.4488 -1H12.125V2ZM7.875 2V-1H6.55123L5.65894 -0.0221511L7.875 2ZM6.05 4V7H7.37377L8.26606 6.02215L6.05 4ZM2 4V1H-1V4H2ZM10 17.5C12.0366 17.5 13.8648 16.7528 15.3088 15.3088L11.0662 11.0662C10.7602 11.3722 10.4634 11.5 10 11.5V17.5ZM15.3088 15.3088C16.7528 13.8648 17.5 12.0366 17.5 10H11.5C11.5 10.4634 11.3722 10.7602 11.0662 11.0662L15.3088 15.3088ZM17.5 10C17.5 7.96343 16.7528 6.13518 15.3088 4.69118L11.0662 8.93382C11.3722 9.23982 11.5 9.53657 11.5 10H17.5ZM15.3088 4.69118C13.8648 3.24718 12.0366 2.5 10 2.5V8.5C10.4634 8.5 10.7602 8.62782 11.0662 8.93382L15.3088 4.69118ZM10 2.5C7.96343 2.5 6.13518 3.24718 4.69118 4.69118L8.93382 8.93382C9.23982 8.62782 9.53657 8.5 10 8.5V2.5ZM4.69118 4.69118C3.24718 6.13518 2.5 7.96343 2.5 10H8.5C8.5 9.53657 8.62782 9.23982 8.93382 8.93382L4.69118 4.69118ZM2.5 10C2.5 12.0366 3.24718 13.8648 4.69118 15.3088L8.93382 11.0662C8.62782 10.7602 8.5 10.4634 8.5 10H2.5ZM4.69118 15.3088C6.13518 16.7528 7.96343 17.5 10 17.5V11.5C9.53657 11.5 9.23982 11.3722 8.93382 11.0662L4.69118 15.3088ZM10 9.5C9.99811 9.5 10.0151 9.49989 10.047 9.50586C10.0795 9.51193 10.1204 9.52302 10.1656 9.54149C10.2642 9.58177 10.3257 9.6331 10.3463 9.65368L6.10368 13.8963C7.16462 14.9573 8.52582 15.5 10 15.5V9.5ZM10.3463 9.65368C10.3669 9.67426 10.4182 9.73576 10.4585 9.83437C10.477 9.87957 10.4881 9.9205 10.4941 9.95297C10.5001 9.98485 10.5 10.0019 10.5 10H4.5C4.5 11.4742 5.04274 12.8354 6.10368 13.8963L10.3463 9.65368ZM10.5 10C10.5 9.99811 10.5001 10.0151 10.4941 10.047C10.4881 10.0795 10.477 10.1204 10.4585 10.1656C10.4182 10.2642 10.3669 10.3257 10.3463 10.3463L6.10368 6.10368C5.04274 7.16462 4.5 8.52582 4.5 10H10.5ZM10.3463 10.3463C10.3257 10.3669 10.2642 10.4182 10.1656 10.4585C10.1204 10.477 10.0795 10.4881 10.047 10.4941C10.0151 10.5001 9.99811 10.5 10 10.5V4.5C8.52582 4.5 7.16462 5.04274 6.10368 6.10368L10.3463 10.3463ZM10 10.5C10.0019 10.5 9.98485 10.5001 9.95297 10.4941C9.9205 10.4881 9.87957 10.477 9.83437 10.4585C9.73576 10.4182 9.67426 10.3669 9.65368 10.3463L13.8963 6.10368C12.8354 5.04274 11.4742 4.5 10 4.5V10.5ZM9.65368 10.3463C9.6331 10.3257 9.58177 10.2642 9.54149 10.1656C9.52302 10.1204 9.51193 10.0795 9.50586 10.047C9.49989 10.0151 9.5 9.99811 9.5 10H15.5C15.5 8.52582 14.9573 7.16462 13.8963 6.10368L9.65368 10.3463ZM9.5 10C9.5 10.0019 9.49989 9.98486 9.50586 9.95297C9.51193 9.92051 9.52302 9.87958 9.54149 9.83438C9.58177 9.73576 9.6331 9.67426 9.65368 9.65368L13.8963 13.8963C14.9573 12.8354 15.5 11.4742 15.5 10H9.5ZM9.65368 9.65368C9.67426 9.6331 9.73576 9.58177 9.83438 9.54149C9.87958 9.52302 9.92051 9.51193 9.95297 9.50586C9.98486 9.49989 10.0019 9.5 10 9.5V15.5C11.4742 15.5 12.8354 14.9573 13.8963 13.8963L9.65368 9.65368ZM2 15C2.08908 15 2.22889 15.0176 2.38648 15.0832C2.54365 15.1485 2.65122 15.2336 2.70882 15.2912L-1.53382 19.5338C-0.584032 20.4836 0.648027 21 2 21V15ZM2.70882 15.2912C2.76642 15.3488 2.85146 15.4564 2.91683 15.6135C2.98238 15.7711 3 15.9109 3 16H-3C-3 17.352 -2.48361 18.584 -1.53382 19.5338L2.70882 15.2912ZM3 16V4H-3V16H3ZM3 4C3 4.08908 2.98238 4.22889 2.91683 4.38648C2.85146 4.54365 2.76642 4.65122 2.70882 4.70882L-1.53382 0.46618C-2.48361 1.41597 -3 2.64803 -3 4H3ZM2.70882 4.70882C2.65122 4.76642 2.54365 4.85146 2.38648 4.91683C2.22889 4.98238 2.08908 5 2 5V-1C0.648025 -1 -0.584033 -0.483607 -1.53382 0.46618L2.70882 4.70882ZM2 5H5.15V-1H2V5ZM7.35128 4.03822L8.60128 2.68822L4.19872 -1.38822L2.94872 -0.0382241L7.35128 4.03822ZM8.61146 2.67717C8.50817 2.78985 8.39209 2.86629 8.29726 2.90911L5.82774 -2.55911C5.21624 -2.28295 4.65849 -1.88985 4.18854 -1.37717L8.61146 2.67717ZM8.29726 2.90911C8.16771 2.96762 8.01765 3 7.875 3V-3C7.16568 -3 6.47395 -2.85095 5.82774 -2.55911L8.29726 2.90911ZM7.875 3H12.125V-3H7.875V3ZM12.125 3C11.9824 3 11.8323 2.96762 11.7027 2.90911L14.1723 -2.55911C13.526 -2.85095 12.8343 -3 12.125 -3V3ZM11.7027 2.90911C11.6079 2.86629 11.4918 2.78986 11.3885 2.67717L15.8115 -1.37717C15.3415 -1.88986 14.7838 -2.28295 14.1723 -2.55911L11.7027 2.90911ZM11.3987 2.68822L12.6487 4.03822L17.0513 -0.0382241L15.8013 -1.38822L11.3987 2.68822ZM14.85 5H18V-1H14.85V5ZM18 5C17.9109 5 17.7711 4.98238 17.6135 4.91683C17.4564 4.85146 17.3488 4.76642 17.2912 4.70882L21.5338 0.46618C20.584 -0.483608 19.352 -1 18 -1V5ZM17.2912 4.70882C17.2336 4.65122 17.1485 4.54365 17.0832 4.38648C17.0176 4.22889 17 4.08908 17 4H23C23 2.64803 22.4836 1.41597 21.5338 0.46618L17.2912 4.70882ZM17 4V16H23V4H17ZM17 16C17 15.9109 17.0176 15.7711 17.0832 15.6135C17.1485 15.4564 17.2336 15.3488 17.2912 15.2912L21.5338 19.5338C22.4836 18.584 23 17.352 23 16H17ZM17.2912 15.2912C17.3488 15.2336 17.4564 15.1485 17.6135 15.0832C17.7711 15.0176 17.9109 15 18 15V21C19.352 21 20.584 20.4836 21.5338 19.5338L17.2912 15.2912ZM18 15H2V21H18V15ZM2 19H18V13H2V19ZM21 16V4H15V16H21ZM18 1H13.95V7H18V1ZM16.1661 1.97785L14.3411 -0.0221511L9.90894 4.02215L11.7339 6.02215L16.1661 1.97785ZM12.125 -1H7.875V5H12.125V-1ZM5.65894 -0.0221511L3.83394 1.97785L8.26606 6.02215L10.0911 4.02215L5.65894 -0.0221511ZM6.05 1H2V7H6.05V1ZM-1 4V16H5V4H-1Z" fill="#FF9810" mask="url(#path-1-inside-1_401_2924)"/>
</svg>
