<svg width="25" height="24" viewBox="0 0 25 24" fill="none" xmlns="http://www.w3.org/2000/svg">
<path d="M10.044 15.1625L18.519 6.68745C18.719 6.48745 18.9565 6.38745 19.2315 6.38745C19.5065 6.38745 19.744 6.48745 19.944 6.68745C20.144 6.88745 20.244 7.12495 20.244 7.39995C20.244 7.67495 20.144 7.91245 19.944 8.11245L10.744 17.3125C10.544 17.5125 10.3106 17.6125 10.044 17.6125C9.77731 17.6125 9.54398 17.5125 9.34398 17.3125L5.04398 13.0125C4.84398 12.8125 4.74815 12.575 4.75648 12.3C4.76481 12.025 4.86898 11.7875 5.06898 11.5875C5.26898 11.3875 5.50648 11.2875 5.78148 11.2875C6.05648 11.2875 6.29398 11.3875 6.49398 11.5875L10.044 15.1625Z" fill="black"/>
</svg>
