<svg width="16" height="16" viewBox="0 0 16 16" fill="none" xmlns="http://www.w3.org/2000/svg">
<path d="M2.02256 10.7416C1.80683 10.2761 1.64504 9.79923 1.53718 9.31101C1.42932 8.8228 1.37539 8.32323 1.37539 7.81231C1.37539 6.86994 1.55421 5.98434 1.91186 5.15551C2.2695 4.32668 2.75488 3.60571 3.36799 2.9926C3.98109 2.37949 4.70206 1.89412 5.53089 1.53647C6.35972 1.17882 7.24532 1 8.18769 1C9.13006 1 10.0157 1.17882 10.8445 1.53647C11.6733 1.89412 12.3943 2.37949 13.0074 2.9926C13.6205 3.60571 14.1059 4.32668 14.4635 5.15551C14.8212 5.98434 15 6.86994 15 7.81231C15 8.75468 14.8212 9.64028 14.4635 10.4691C14.1059 11.2979 13.6205 12.0189 13.0074 12.632C12.3943 13.2451 11.6733 13.7305 10.8445 14.0881C10.0157 14.4458 9.13006 14.6246 8.18769 14.6246C7.67677 14.6246 7.1772 14.5707 6.68899 14.4628C6.20077 14.355 5.72391 14.1932 5.2584 13.9774L1.88631 14.9652C1.62517 15.0447 1.39809 14.9879 1.20508 14.7949C1.01206 14.6019 0.955294 14.3748 1.03477 14.1137L2.02256 10.7416ZM2.70379 13.2962L4.88372 12.649C5.04268 12.6036 5.20447 12.5866 5.3691 12.598C5.53373 12.6093 5.68985 12.649 5.83745 12.7172C6.20077 12.8988 6.58112 13.0351 6.97851 13.1259C7.37589 13.2167 7.77895 13.2622 8.18769 13.2622C9.70911 13.2622 10.9978 12.7342 12.0537 11.6783C13.1096 10.6224 13.6375 9.33372 13.6375 7.81231C13.6375 6.29089 13.1096 5.00223 12.0537 3.94632C10.9978 2.89042 9.70911 2.36246 8.18769 2.36246C6.66628 2.36246 5.37762 2.89042 4.32171 3.94632C3.2658 5.00223 2.73785 6.29089 2.73785 7.81231C2.73785 8.22105 2.78326 8.62411 2.87409 9.02149C2.96492 9.41888 3.10117 9.79923 3.28283 10.1626C3.36231 10.3102 3.40489 10.4663 3.41056 10.6309C3.41624 10.7955 3.39637 10.9573 3.35096 11.1163L2.70379 13.2962Z" fill="#A0A0A0"/>
</svg>
