<svg width="20" height="16" viewBox="0 0 20 16" fill="none" xmlns="http://www.w3.org/2000/svg">
<path d="M2 16C1.45 16 0.979167 15.8042 0.5875 15.4125C0.195833 15.0208 0 14.55 0 14V2C0 1.45 0.195833 0.979167 0.5875 0.5875C0.979167 0.195833 1.45 0 2 0H7.175C7.44167 0 7.69583 0.05 7.9375 0.15C8.17917 0.25 8.39167 0.391667 8.575 0.575L10 2H18C18.55 2 19.0208 2.19583 19.4125 2.5875C19.8042 2.97917 20 3.45 20 4V14C20 14.55 19.8042 15.0208 19.4125 15.4125C19.0208 15.8042 18.55 16 18 16H2ZM2 14H18V4H9.175L7.175 2H2V14ZM10.2 10L9.275 10.925C9.09167 11.1083 9 11.3417 9 11.625C9 11.9083 9.09167 12.1417 9.275 12.325C9.45833 12.5083 9.69167 12.6 9.975 12.6C10.2583 12.6 10.4917 12.5083 10.675 12.325L13.3 9.7C13.5 9.5 13.6 9.26667 13.6 9C13.6 8.73333 13.5 8.5 13.3 8.3L10.675 5.675C10.4917 5.49167 10.2583 5.4 9.975 5.4C9.69167 5.4 9.45833 5.49167 9.275 5.675C9.09167 5.85833 9 6.09167 9 6.375C9 6.65833 9.09167 6.89167 9.275 7.075L10.2 8H7C6.71667 8 6.47917 8.09583 6.2875 8.2875C6.09583 8.47917 6 8.71667 6 9C6 9.28333 6.09583 9.52083 6.2875 9.7125C6.47917 9.90417 6.71667 10 7 10H10.2Z" fill="black"/>
</svg>
