<svg width="69" height="69" viewBox="0 0 69 69" fill="#fff" xmlns="http://www.w3.org/2000/svg">
<path d="M7.55087 61.4384H12.8365L45.3996 28.8288L40.114 23.5356L7.55087 56.1452V61.4384ZM61.5396 23.3466L45.494 7.46712L50.7796 2.17397C52.2268 0.724657 54.0044 0 56.1124 0C58.2204 0 59.9979 0.724657 61.4452 2.17397L66.7308 7.46712C68.1781 8.91644 68.9331 10.6651 68.9961 12.713C69.059 14.761 68.3668 16.5096 66.9196 17.9589L61.5396 23.3466ZM3.77543 69C2.70573 69 1.80906 68.6377 1.08544 67.913C0.361812 67.1884 0 66.2904 0 65.2192V54.5384C0 54.0342 0.0943859 53.5459 0.283158 53.0733C0.471929 52.6007 0.755087 52.1753 1.13263 51.7973L40.0196 12.8548L56.0652 28.9233L17.1782 67.8658C16.8007 68.2438 16.3759 68.5274 15.904 68.7164C15.4321 68.9055 14.9444 69 14.441 69H3.77543Z"/>
</svg>
