<svg width="155" height="226" viewBox="0 0 155 226" fill="none" xmlns="http://www.w3.org/2000/svg">
<path d="M113.593 118.563C121.119 126.052 118.425 138.708 108.551 142.617C105.947 143.65 103.268 144.459 100.559 145.043C83.7464 148.743 65.4589 144.085 52.3641 131.069C31.9844 110.79 31.9844 77.9286 52.334 57.6489C52.334 57.6489 52.349 57.6339 52.3641 57.6189L90.5497 19.6207C91.0464 19.1264 91.8441 19.1264 92.3408 19.6207C99.2795 26.5254 99.2795 37.7137 92.3408 44.6184L65.805 71.0389H65.79C63.6376 73.1657 61.8465 75.5172 60.4317 78.0335C58.5803 81.7329 57.2558 85.6271 56.443 89.5962V89.6411C55.0131 99.5713 58.1288 110.041 65.8201 117.679C78.4784 130.275 98.843 130.56 111.847 118.533C112.359 118.069 113.127 118.069 113.624 118.548L113.593 118.563Z" fill="#FF9810"/>
<path d="M108.551 142.617C105.947 143.65 103.268 144.459 100.559 145.043C89.1649 144.669 77.8763 140.161 69.1765 131.504C57.7525 120.136 53.508 104.334 56.428 89.6561C55.0131 99.5863 58.1288 110.041 65.805 117.679C78.4633 130.275 98.8279 130.56 111.832 118.533C112.344 118.069 113.112 118.069 113.608 118.548C121.134 126.037 118.44 138.693 108.566 142.602L108.551 142.617Z" fill="#FFBE4A"/>
<path d="M81.4836 88.7005L106.963 63.3462C107.452 62.859 108.261 62.859 108.751 63.3462C115.679 70.2408 115.679 81.4458 108.751 88.3404L94.9469 102.077C91.2325 105.773 85.2086 105.773 81.4942 102.077C77.7798 98.3805 77.7798 92.3861 81.4942 88.6899L81.4836 88.7005Z" fill="#FFA829"/>
<path d="M121.571 205.927V199.232H112.796V205.927H121.571Z" fill="#FFBE4A"/>
<path d="M27.785 171.299V205.927H21.057V177.994C21.057 174.295 24.0673 171.299 27.785 171.299Z" fill="#FF9810"/>
<path d="M42.5204 177.979V171.284H28.4021V177.979H42.5204Z" fill="#FFBE4A"/>
<path d="M42.5354 190.066V183.371H21.1924V190.066H42.5354Z" fill="#FF9810"/>
<path d="M54.9077 171.299H48.1797V205.927H54.9077V171.299Z" fill="#FF9810"/>
<path d="M67.2951 183.371H60.5671V205.927H67.2951V183.371Z" fill="#FF9810"/>
<path d="M67.295 177.994V171.299H60.567V177.994H67.295Z" fill="#FF9810"/>
<path d="M79.6675 177.994H72.9395V205.927H79.6675V177.994Z" fill="#FFBE4A"/>
<path d="M94.4178 177.994H87.6898V205.927H94.4178V177.994Z" fill="#FFBE4A"/>
<path d="M94.4329 177.994H72.9544C72.9544 174.295 75.9647 171.299 79.6824 171.299H87.7049C91.4226 171.299 94.4329 174.295 94.4329 177.994Z" fill="#FF9810"/>
<path d="M119.524 184.704V178.009H100.077V184.704H119.524Z" fill="#FF9810"/>
<path d="M133.943 205.927V199.232H127.215V205.927H133.943Z" fill="#FF9810"/>
<path d="M34.513 171.299V177.994H27.785C27.785 174.295 30.7953 171.299 34.513 171.299Z" fill="#FFBE4A"/>
<path d="M34.513 171.299C32.6617 171.299 30.9759 172.048 29.7568 173.246C28.5376 174.474 27.785 176.137 27.785 177.994V171.299H34.513Z" fill="#FF9810"/>
<path d="M106.444 171.299H113.172V205.927C109.454 205.927 106.444 202.932 106.444 199.232V171.299Z" fill="#FF9810"/>
<path d="M119.9 205.927C118.049 205.927 116.363 205.179 115.144 203.98C113.925 202.752 113.172 201.09 113.172 199.232V205.927H119.9Z" fill="#FF9810"/>
<path d="M79.6825 177.994C77.8311 177.994 76.1454 178.743 74.9262 179.941C73.707 181.169 72.9545 182.832 72.9545 184.689V177.994H79.6825Z" fill="#FF9810"/>
<path d="M87.6898 177.994C89.5411 177.994 91.2269 178.743 92.4461 179.941C93.6653 181.169 94.4178 182.832 94.4178 184.689V177.994H87.6898Z" fill="#FF9810"/>
</svg>
