<svg width="57" height="87" viewBox="0 0 57 87" fill="none" xmlns="http://www.w3.org/2000/svg">
<path d="M51.3474 67.6821C56.3976 72.7857 54.5896 81.4109 47.9638 84.075C46.2165 84.7793 44.4186 85.3305 42.6005 85.7286C31.3185 88.2498 19.0466 85.0753 10.2594 76.2052C-3.41642 62.3845 -3.41643 39.9897 10.2392 26.169C10.2392 26.169 10.2493 26.1588 10.2594 26.1486L35.8838 0.252631C36.2172 -0.0842103 36.7525 -0.0842103 37.0858 0.252631C41.742 4.9582 41.742 12.5831 37.0858 17.2886L19.2789 35.2943H19.2688C17.8245 36.7437 16.6226 38.3463 15.6731 40.0611C14.4308 42.5823 13.542 45.2362 12.9966 47.9411V47.9718C12.037 54.7392 14.1278 61.8741 19.289 67.0798C27.7834 75.6642 41.4491 75.8581 50.1758 67.6617C50.5192 67.3452 51.0343 67.3452 51.3676 67.6719L51.3474 67.6821Z" fill="white"/>
<path d="M48.0016 83.7933C46.2676 84.4824 44.4834 85.0217 42.6792 85.4113C35.0915 85.1616 27.5739 82.1553 21.7804 76.3824C14.1727 68.8017 11.3461 58.2646 13.2906 48.4766C12.3484 55.0985 14.4232 62.0699 19.5352 67.1637C27.9649 75.5634 41.5265 75.7531 50.1867 67.733C50.5275 67.4234 51.0387 67.4234 51.3695 67.743C56.3812 72.7368 54.587 81.1765 48.0116 83.7833L48.0016 83.7933Z" fill="white"/>
<path d="M29.8649 47.2799L47.225 30.0195C47.5585 29.6878 48.1096 29.6878 48.4432 30.0195C53.1639 34.7131 53.1639 42.3412 48.4432 47.0348L39.038 56.386C36.5072 58.9022 32.4029 58.9022 29.8721 56.386C27.3414 53.8697 27.3414 49.789 29.8721 47.2727L29.8649 47.2799Z" fill="white"/>
</svg>
